# xmcd
#
# Track frame offsets: 
#        151
#        22220
#        43623
#        64543
#        104550
#        127809
#        162008
#        196852
#
# Disc length: 3029 seconds
#
# Revision: 0
# Processed by: cddbd v1.5.2PL0 Copyright (c) Steve Scherf et al.
# Submitted via: ExactAudioCopy v0.95b4
#
DISCID=630bd308
DTITLE=Eric Clapton - Ice Palace Arena - Tampa Florida, May 19, 2001 -
DTITLE=CD2
DYEAR=2001
DGENRE=Blues
TTITLE0=I Want A Little Girl
TTITLE1=Travelin' Light
TTITLE2=Hoochie Coochie Man
TTITLE3=Stormy Monday
TTITLE4=Cocaine
TTITLE5=Wonderful Tongiht
TTITLE6=Layla
TTITLE7=Sunshine Of Your Love
EXTD=
EXTT0=
EXTT1=
EXTT2=
EXTT3=
EXTT4=
EXTT5=
EXTT6=
EXTT7=
PLAYORDER=
